<svg width="87" height="86" viewBox="0 0 87 86" fill="none" xmlns="http://www.w3.org/2000/svg">
<g filter="url(#filter0_d_10642_3)">
<rect x="23" y="18" width="41" height="40" rx="20" fill="#E3B873"/>
<path d="M38.3239 44.27C37.3519 44.27 36.4699 44.012 35.6779 43.496C34.8859 42.98 34.2559 42.23 33.7879 41.246C33.3319 40.25 33.1039 39.068 33.1039 37.7C33.1039 36.332 33.3319 35.156 33.7879 34.172C34.2559 33.176 34.8859 32.42 35.6779 31.904C36.4699 31.388 37.3519 31.13 38.3239 31.13C39.2959 31.13 40.1779 31.388 40.9699 31.904C41.7619 32.42 42.3859 33.176 42.8419 34.172C43.3099 35.156 43.5439 36.332 43.5439 37.7C43.5439 39.068 43.3099 40.25 42.8419 41.246C42.3859 42.23 41.7619 42.98 40.9699 43.496C40.1779 44.012 39.2959 44.27 38.3239 44.27ZM38.3239 43.91C39.7039 43.91 40.3939 41.84 40.3939 37.7C40.3939 33.56 39.7039 31.49 38.3239 31.49C36.9439 31.49 36.2539 33.56 36.2539 37.7C36.2539 41.84 36.9439 43.91 38.3239 43.91ZM44.8925 43.19C44.8925 42.482 45.0305 41.84 45.3065 41.264C45.5945 40.676 45.9425 40.166 46.3505 39.734C46.7585 39.302 47.2925 38.792 47.9525 38.204C48.5645 37.664 49.0445 37.214 49.3925 36.854C49.7405 36.482 50.0345 36.068 50.2745 35.612C50.5145 35.144 50.6345 34.64 50.6345 34.1C50.6345 33.308 50.4425 32.69 50.0585 32.246C49.6745 31.802 49.1765 31.58 48.5645 31.58C48.2165 31.58 47.8625 31.628 47.5025 31.724L47.1245 31.85V34.73L46.8905 34.784C46.6985 34.808 46.5365 34.82 46.4045 34.82C45.9965 34.82 45.6665 34.7 45.4145 34.46C45.1745 34.208 45.0545 33.878 45.0545 33.47C45.0545 33.086 45.1985 32.714 45.4865 32.354C45.7865 31.994 46.2245 31.7 46.8005 31.472C47.3885 31.244 48.0965 31.13 48.9245 31.13C50.5445 31.13 51.7445 31.454 52.5245 32.102C53.3045 32.75 53.6945 33.656 53.6945 34.82C53.6945 35.552 53.5025 36.182 53.1185 36.71C52.7465 37.238 52.2845 37.676 51.7325 38.024C51.1925 38.372 50.4665 38.768 49.5545 39.212C48.7865 39.584 48.1625 39.914 47.6825 40.202C47.2145 40.478 46.7765 40.814 46.3685 41.21C45.9725 41.606 45.6905 42.056 45.5225 42.56H52.1825C52.2665 41.912 52.4705 41.372 52.7945 40.94C52.9265 40.736 53.0825 40.556 53.2625 40.4H53.8025V44H44.8925V43.19Z" fill="white"/>
<rect x="19" y="14" width="49" height="48" rx="24" stroke="white" stroke-width="8"/>
</g>
<defs>
<filter id="filter0_d_10642_3" x="0" y="0" width="87" height="86" filterUnits="userSpaceOnUse" color-interpolation-filters="sRGB">
<feFlood flood-opacity="0" result="BackgroundImageFix"/>
<feColorMatrix in="SourceAlpha" type="matrix" values="0 0 0 0 0 0 0 0 0 0 0 0 0 0 0 0 0 0 127 0" result="hardAlpha"/>
<feOffset dy="5"/>
<feGaussianBlur stdDeviation="7.5"/>
<feColorMatrix type="matrix" values="0 0 0 0 0.890196 0 0 0 0 0.721569 0 0 0 0 0.45098 0 0 0 0.15 0"/>
<feBlend mode="normal" in2="BackgroundImageFix" result="effect1_dropShadow_10642_3"/>
<feBlend mode="normal" in="SourceGraphic" in2="effect1_dropShadow_10642_3" result="shape"/>
</filter>
</defs>
</svg>
