<svg width="729" height="448" viewBox="0 0 729 448" fill="none" xmlns="http://www.w3.org/2000/svg">
<path d="M471.872 318.375H528.87V451.674H471.872V318.375Z" fill="#333333"/>
<path d="M502.962 311.649H528.87V319.237H502.962V311.649Z" fill="#333333"/>
<path d="M513.843 307.338H528.87V311.649H513.843V307.338Z" fill="#333333"/>
<path opacity="0.06" d="M495.707 327.687H505.034V334.584H495.707V327.687Z" fill="white"/>
<path opacity="0.12" d="M495.707 344.758H505.034V351.656H495.707V344.758Z" fill="white"/>
<path opacity="0.19" d="M495.707 378.903H505.034V385.8H495.707V378.903Z" fill="white"/>
<path opacity="0.14" d="M495.707 413.046H505.034V419.944H495.707V413.046Z" fill="white"/>
<path opacity="0.1" d="M495.707 430.118H505.034V437.016H495.707V430.118Z" fill="white"/>
<path d="M614.884 332.859H692.954V404.251H614.884V332.859Z" fill="#333333"/>
<path d="M627.147 326.479H680.518V357.174H627.147V326.479Z" fill="#333333"/>
<path d="M609.185 377.867H687.254V449.259H609.185V377.867Z" fill="#333333"/>
<path d="M621.62 371.487H674.991V402.182H621.62V371.487Z" fill="#333333"/>
<path d="M505.207 368.383H583.276V450.639H505.207V368.383Z" fill="#333333"/>
<path d="M517.47 361.14H570.841V396.664H517.47V361.14Z" fill="#333333"/>
<path d="M243.881 393.388H321.951V472.885H243.881V393.388Z" fill="#333333"/>
<path d="M256.144 386.318H309.515V420.634H256.144V386.318Z" fill="#333333"/>
<path d="M413.147 229.221H500.371V450.467H413.147V229.221Z" fill="#333333"/>
<path opacity="0.46" d="M474.981 239.223H496.053V243.189H474.981V239.223Z" fill="#E6E6E6"/>
<path opacity="0.34" d="M446.136 239.223H467.208V243.189H446.136V239.223Z" fill="#E6E6E6"/>
<path opacity="0.52" d="M417.465 239.223H438.537V243.189H417.465V239.223Z" fill="#E6E6E6"/>
<path opacity="0.54" d="M474.981 248.362H496.053V252.328H474.981V248.362Z" fill="#E6E6E6"/>
<path opacity="0.3" d="M446.136 248.362H467.208V252.328H446.136V248.362Z" fill="#E6E6E6"/>
<path opacity="0.06" d="M417.465 248.362H438.537V252.328H417.465V248.362Z" fill="#E6E6E6"/>
<path opacity="0.15" d="M474.981 257.502H496.053V261.468H474.981V257.502Z" fill="#E6E6E6"/>
<path opacity="0.42" d="M446.136 257.502H467.208V261.468H446.136V257.502Z" fill="#E6E6E6"/>
<path opacity="0.48" d="M417.465 257.502H438.537V261.468H417.465V257.502Z" fill="#E6E6E6"/>
<path opacity="0.18" d="M474.981 266.641H496.053V270.607H474.981V266.641Z" fill="#E6E6E6"/>
<path opacity="0.28" d="M417.465 266.641H438.537V270.607H417.465V266.641Z" fill="#E6E6E6"/>
<path opacity="0.29" d="M474.981 275.781H496.053V279.747H474.981V275.781Z" fill="#E6E6E6"/>
<path opacity="0.28" d="M446.136 275.781H467.208V279.747H446.136V275.781Z" fill="#E6E6E6"/>
<path opacity="0.56" d="M417.465 275.781H438.537V279.747H417.465V275.781Z" fill="#E6E6E6"/>
<path opacity="0.41" d="M474.981 284.921H496.053V288.887H474.981V284.921Z" fill="#E6E6E6"/>
<path opacity="0.16" d="M446.136 284.921H467.208V288.887H446.136V284.921Z" fill="#E6E6E6"/>
<path opacity="0.4" d="M417.465 284.921H438.537V288.887H417.465V284.921Z" fill="#E6E6E6"/>
<path opacity="0.1" d="M474.981 294.06H496.053V298.026H474.981V294.06Z" fill="#E6E6E6"/>
<path opacity="0.17" d="M446.136 294.06H467.208V298.026H446.136V294.06Z" fill="#E6E6E6"/>
<path opacity="0.08" d="M417.465 294.06H438.537V298.026H417.465V294.06Z" fill="#E6E6E6"/>
<path opacity="0.49" d="M474.981 303.2H496.053V307.166H474.981V303.2Z" fill="#E6E6E6"/>
<path opacity="0.58" d="M446.136 303.2H467.208V307.166H446.136V303.2Z" fill="#E6E6E6"/>
<path opacity="0.58" d="M417.465 303.2H438.537V307.166H417.465V303.2Z" fill="#E6E6E6"/>
<path opacity="0.26" d="M474.981 312.339H496.053V316.305H474.981V312.339Z" fill="#E6E6E6"/>
<path opacity="0.37" d="M446.136 312.339H467.208V316.305H446.136V312.339Z" fill="#E6E6E6"/>
<path opacity="0.34" d="M417.465 312.339H438.537V316.305H417.465V312.339Z" fill="#E6E6E6"/>
<path opacity="0.55" d="M474.981 321.479H496.053V325.445H474.981V321.479Z" fill="#E6E6E6"/>
<path opacity="0.12" d="M446.136 321.479H467.208V325.445H446.136V321.479Z" fill="#E6E6E6"/>
<path opacity="0.6" d="M417.465 321.479H438.537V325.445H417.465V321.479Z" fill="#E6E6E6"/>
<path opacity="0.02" d="M474.981 330.618H496.053V334.584H474.981V330.618Z" fill="#E6E6E6"/>
<path opacity="0.28" d="M446.136 330.618H467.208V334.584H446.136V330.618Z" fill="#E6E6E6"/>
<path opacity="0.21" d="M417.465 330.618H438.537V334.584H417.465V330.618Z" fill="#E6E6E6"/>
<path opacity="0.57" d="M474.981 339.758H496.053V343.724H474.981V339.758Z" fill="#E6E6E6"/>
<path opacity="0.38" d="M446.136 339.758H467.208V343.724H446.136V339.758Z" fill="#E6E6E6"/>
<path opacity="0.25" d="M417.465 339.758H438.537V343.724H417.465V339.758Z" fill="#E6E6E6"/>
<path opacity="0.15" d="M474.981 348.897H496.053V352.863H474.981V348.897Z" fill="#E6E6E6"/>
<path opacity="0.47" d="M446.136 348.897H467.208V352.863H446.136V348.897Z" fill="#E6E6E6"/>
<path opacity="0.3" d="M417.465 348.897H438.537V352.863H417.465V348.897Z" fill="#E6E6E6"/>
<path opacity="0.4" d="M474.981 358.037H496.053V362.003H474.981V358.037Z" fill="#E6E6E6"/>
<path opacity="0.39" d="M446.136 358.037H467.208V362.003H446.136V358.037Z" fill="#E6E6E6"/>
<path opacity="0.24" d="M417.465 358.037H438.537V362.003H417.465V358.037Z" fill="#E6E6E6"/>
<path opacity="0.46" d="M474.981 367.176H496.053V371.143H474.981V367.176Z" fill="#E6E6E6"/>
<path opacity="0.22" d="M446.136 367.176H467.208V371.143H446.136V367.176Z" fill="#E6E6E6"/>
<path opacity="0.11" d="M417.465 367.176H438.537V371.143H417.465V367.176Z" fill="#E6E6E6"/>
<path opacity="0.11" d="M446.136 376.316H467.208V380.282H446.136V376.316Z" fill="#E6E6E6"/>
<path opacity="0.02" d="M417.465 376.316H438.537V380.282H417.465V376.316Z" fill="#E6E6E6"/>
<path opacity="0.27" d="M474.981 385.456H496.053V389.422H474.981V385.456Z" fill="#E6E6E6"/>
<path opacity="0.21" d="M446.136 385.456H467.208V389.422H446.136V385.456Z" fill="#E6E6E6"/>
<path opacity="0.49" d="M417.465 385.456H438.537V389.422H417.465V385.456Z" fill="#E6E6E6"/>
<path opacity="0.6" d="M474.981 394.595H496.053V398.561H474.981V394.595Z" fill="#E6E6E6"/>
<path opacity="0.31" d="M446.136 394.595H467.208V398.561H446.136V394.595Z" fill="#E6E6E6"/>
<path opacity="0.22" d="M417.465 394.595H438.537V398.561H417.465V394.595Z" fill="#E6E6E6"/>
<path opacity="0.54" d="M474.981 403.735H496.053V407.701H474.981V403.735Z" fill="#E6E6E6"/>
<path opacity="0.6" d="M446.136 403.735H467.208V407.701H446.136V403.735Z" fill="#E6E6E6"/>
<path opacity="0.08" d="M417.465 403.735H438.537V407.701H417.465V403.735Z" fill="#E6E6E6"/>
<path opacity="0.55" d="M446.136 412.874H467.208V416.84H446.136V412.874Z" fill="#E6E6E6"/>
<path d="M417.465 412.874H438.537V416.84H417.465V412.874Z" fill="#E6E6E6"/>
<path opacity="0.6" d="M473.599 239.223H474.981V416.84H473.599V239.223Z" fill="#E6E6E6"/>
<path opacity="0.6" d="M438.537 239.223H439.919V416.84H438.537V239.223Z" fill="#E6E6E6"/>
<path d="M369.621 229.221H413.147V450.467H369.621V229.221Z" fill="#4D4D4D"/>
<path opacity="0.69" d="M376.012 239.223H408.829V243.189H376.012V239.223Z" fill="#E6E6E6"/>
<path opacity="0.79" d="M376.012 248.362H408.829V252.328H376.012V248.362Z" fill="#E6E6E6"/>
<path opacity="0.19" d="M376.012 257.502H408.829V261.468H376.012V257.502Z" fill="#E6E6E6"/>
<path opacity="0.88" d="M376.012 266.641H408.829V270.607H376.012V266.641Z" fill="#E6E6E6"/>
<path opacity="0.5" d="M376.012 275.781H408.829V279.747H376.012V275.781Z" fill="#E6E6E6"/>
<path opacity="0.25" d="M376.012 284.921H408.829V288.887H376.012V284.921Z" fill="#E6E6E6"/>
<path opacity="0.91" d="M376.012 294.06H408.829V298.026H376.012V294.06Z" fill="#E6E6E6"/>
<path opacity="0.02" d="M376.012 303.2H408.829V307.166H376.012V303.2Z" fill="#E6E6E6"/>
<path opacity="0.53" d="M376.012 312.339H408.829V316.305H376.012V312.339Z" fill="#E6E6E6"/>
<path opacity="0.65" d="M376.012 321.479H408.829V325.445H376.012V321.479Z" fill="#E6E6E6"/>
<path d="M376.012 330.618H408.829V334.584H376.012V330.618Z" fill="#E6E6E6"/>
<path opacity="0.8" d="M376.012 339.758H408.829V343.724H376.012V339.758Z" fill="#E6E6E6"/>
<path opacity="0.82" d="M376.012 348.897H408.829V352.863H376.012V348.897Z" fill="#E6E6E6"/>
<path opacity="0.75" d="M376.012 358.037H408.829V362.003H376.012V358.037Z" fill="#E6E6E6"/>
<path opacity="0.31" d="M376.012 367.176H408.829V371.143H376.012V367.176Z" fill="#E6E6E6"/>
<path opacity="0.22" d="M376.012 376.316H408.829V380.282H376.012V376.316Z" fill="#E6E6E6"/>
<path opacity="0.43" d="M376.012 385.456H408.829V389.422H376.012V385.456Z" fill="#E6E6E6"/>
<path opacity="0.68" d="M376.012 394.595H408.829V398.561H376.012V394.595Z" fill="#E6E6E6"/>
<path opacity="0.38" d="M376.012 403.735H408.829V407.701H376.012V403.735Z" fill="#E6E6E6"/>
<path opacity="0.84" d="M376.012 412.874H408.829V416.84H376.012V412.874Z" fill="#E6E6E6"/>
<path d="M484.999 217.494V229.221H428.519V217.494H484.999ZM472.39 225.427H478.262V221.461H472.39V225.427ZM463.236 225.427H468.936V221.461H463.236V225.427ZM453.909 225.427H459.609V221.461H453.909V225.427ZM444.582 225.427H450.454V221.461H444.582V225.427ZM435.255 225.427H441.128V221.461H435.255V225.427Z" fill="#333333"/>
<path d="M418.156 221.461H419.71V225.427H418.156V221.461Z" fill="#333333"/>
<path d="M428.519 217.494V229.221H401.92V217.494H428.519ZM418.156 225.427H423.856V221.461H418.156V225.427ZM405.893 225.427H411.592V221.461H405.893V225.427Z" fill="#4D4D4D"/>
<path d="M406.065 221.461H407.62V225.427H406.065V221.461Z" fill="#333333"/>
<path d="M401.575 465.469H519.024L401.575 378.902V465.469Z" fill="#333333"/>
<path d="M576.713 182.316H586.213V218.357H576.713V182.316Z" fill="#4D4D4D"/>
<path d="M586.04 182.316H595.712V218.357H586.04V182.316Z" fill="#333333"/>
<path d="M566.868 182.316H576.54V218.357H566.868V182.316Z" fill="#666666"/>
<path d="M538.887 243.016H565.832V448.57H538.887V243.016Z" fill="#666666"/>
<path d="M597.439 243.016H620.929V448.57H597.439V243.016Z" fill="#333333"/>
<path d="M565.832 243.016H597.612V448.57H565.832V243.016Z" fill="#4D4D4D"/>
<path opacity="0.6" d="M614.193 249.052H617.648V445.811H614.193V249.052Z" fill="#E6E6E6"/>
<path opacity="0.6" d="M607.457 249.052H610.912V445.811H607.457V249.052Z" fill="#E6E6E6"/>
<path opacity="0.6" d="M600.721 249.052H604.175V445.811H600.721V249.052Z" fill="#E6E6E6"/>
<path d="M560.477 249.052H563.932V445.811H560.477V249.052Z" fill="#E6E6E6"/>
<path d="M553.741 249.052H557.196V445.811H553.741V249.052Z" fill="#E6E6E6"/>
<path d="M540.615 249.052H544.069V445.811H540.615V249.052Z" fill="#E6E6E6"/>
<path d="M547.005 249.052H550.46V445.811H547.005V249.052Z" fill="#E6E6E6"/>
<path opacity="0.8" d="M593.64 445.811H569.804V249.052H593.64V445.811ZM589.84 252.5H573.604V442.362H589.84V252.5Z" fill="#E6E6E6"/>
<path opacity="0.8" d="M586.731 439.085H576.54V255.604H586.731V439.085ZM583.276 259.915H582.067H581.376H579.995V434.774H581.376H582.067H583.276V259.915Z" fill="#E6E6E6"/>
<path opacity="0.8" d="M581.376 259.916H582.067V434.774H581.376V259.916Z" fill="#E6E6E6"/>
<path d="M569.459 206.975H593.294V243.016H569.459V206.975Z" fill="#4D4D4D"/>
<path d="M569.459 206.975H593.294V243.016H569.459V206.975Z" fill="#4D4D4D"/>
<path d="M545.623 206.975H569.459V243.016H545.623V206.975Z" fill="#666666"/>
<path d="M593.294 206.975H617.13V243.016H593.294V206.975Z" fill="#333333"/>
<path d="M567.041 182.316H595.712L586.213 188.869H576.54L567.041 182.316Z" fill="#808080"/>
<path d="M54.5796 169.037H68.3971V209.562H54.5796V169.037Z" fill="#4D4D4D"/>
<path d="M68.5701 169.037H82.3877V209.562H68.5701V169.037Z" fill="#333333"/>
<path d="M40.7618 169.037H54.5796V209.562H40.7618V169.037Z" fill="#666666"/>
<path d="M0 237.498H39.0347V469.091H0V237.498Z" fill="#666666"/>
<path d="M84.9785 237.498H118.832V469.091H84.9785V237.498Z" fill="#333333"/>
<path d="M39.0348 237.498H84.9784V469.091H39.0348V237.498Z" fill="#4D4D4D"/>
<path opacity="0.4" d="M109.159 244.396H114.168V465.987H109.159V244.396Z" fill="#E6E6E6"/>
<path opacity="0.4" d="M99.3141 244.396H104.323V465.987H99.3141V244.396Z" fill="#E6E6E6"/>
<path opacity="0.4" d="M89.469 244.396H94.478V465.987H89.469V244.396Z" fill="#E6E6E6"/>
<path d="M31.2623 244.396H36.2712V465.987H31.2623V244.396Z" fill="#E6E6E6"/>
<path d="M21.4172 244.396H26.4263V465.987H21.4172V244.396Z" fill="#E6E6E6"/>
<path d="M2.59082 244.396H7.59973V465.987H2.59082V244.396Z" fill="#E6E6E6"/>
<path d="M11.7449 244.396H16.7539V465.987H11.7449V244.396Z" fill="#E6E6E6"/>
<path d="M79.106 465.987H44.5618V244.396H79.106V465.987ZM73.7516 248.189H50.2615V462.193H73.7516V248.189Z" fill="#E6E6E6"/>
<path d="M69.4336 458.572H54.5796V251.811H69.4336V458.572ZM64.252 256.639H62.352H61.4884H59.5885V453.743H61.4884H62.352H64.252V256.639Z" fill="#E6E6E6"/>
<path d="M61.4884 256.639H62.3519V453.743H61.4884V256.639Z" fill="#E6E6E6"/>
<path d="M44.2163 196.973H78.7605V237.498H44.2163V196.973Z" fill="#4D4D4D"/>
<path d="M44.2163 196.973H78.7605V237.498H44.2163V196.973Z" fill="#4D4D4D"/>
<path d="M9.67236 196.973H44.2163V237.498H9.67236V196.973Z" fill="#666666"/>
<path d="M78.5876 196.973H113.132V237.498H78.5876V196.973Z" fill="#333333"/>
<path d="M40.5894 169.037H82.3877L68.3973 176.453H54.5797L40.5894 169.037Z" fill="#808080"/>
<path d="M154.239 269.572H248.717V300.957H154.239V269.572Z" fill="#E6E6E6"/>
<path d="M211.582 269.572H248.717V300.957H211.582V269.572Z" fill="#B3B3B3"/>
<path d="M211.582 301.129H284.989V453.57H211.582V301.129Z" fill="#333333"/>
<path d="M96.8961 301.129H211.582V453.57H96.8961V301.129Z" fill="#4D4D4D"/>
<path d="M220.564 285.609H277.043V301.129H220.564V285.609Z" fill="#333333"/>
<path d="M113.995 285.609H194.656V301.129H113.995V285.609Z" fill="#4D4D4D"/>
<path d="M179.284 257.673H211.582V269.572H179.284V257.673Z" fill="#E6E6E6"/>
<path d="M195.519 245.602H211.582V257.501H195.519V245.602Z" fill="#4D4D4D"/>
<path d="M211.755 245.602H227.818V257.501H211.755V245.602Z" fill="#333333"/>
<path d="M211.582 257.673H236.281V269.572H211.582V257.673Z" fill="#B3B3B3"/>
<path d="M212.619 245.602L211.582 218.011L210.719 245.602H212.619Z" fill="#333333"/>
<path opacity="0.12" d="M261.844 307.337H267.889V313.373H261.844V307.337Z" fill="white"/>
<path opacity="0.25" d="M253.553 307.337H259.599V313.373H253.553V307.337Z" fill="white"/>
<path opacity="0.36" d="M245.263 307.337H251.308V313.373H245.263V307.337Z" fill="white"/>
<path opacity="0.12" d="M236.972 307.337H243.018V313.373H236.972V307.337Z" fill="white"/>
<path opacity="0.14" d="M228.682 307.337H234.727V313.373H228.682V307.337Z" fill="white"/>
<path opacity="0.28" d="M261.844 315.27H267.889V321.305H261.844V315.27Z" fill="white"/>
<path opacity="0.4" d="M253.553 315.27H259.599V321.305H253.553V315.27Z" fill="white"/>
<path opacity="0.16" d="M245.263 315.27H251.308V321.305H245.263V315.27Z" fill="white"/>
<path opacity="0.17" d="M228.682 315.27H234.727V321.305H228.682V315.27Z" fill="white"/>
<path opacity="0.27" d="M261.844 323.202H267.889V329.237H261.844V323.202Z" fill="white"/>
<path opacity="0.45" d="M253.553 323.202H259.599V329.237H253.553V323.202Z" fill="white"/>
<path opacity="0.45" d="M245.263 323.202H251.308V329.237H245.263V323.202Z" fill="white"/>
<path opacity="0.48" d="M236.972 323.202H243.018V329.237H236.972V323.202Z" fill="white"/>
<path opacity="0.25" d="M228.682 323.202H234.727V329.237H228.682V323.202Z" fill="white"/>
<path opacity="0.28" d="M261.844 331.134H267.889V337.17H261.844V331.134Z" fill="white"/>
<path opacity="0.13" d="M253.553 331.134H259.599V337.17H253.553V331.134Z" fill="white"/>
<path opacity="0.07" d="M245.263 331.134H251.308V337.17H245.263V331.134Z" fill="white"/>
<path opacity="0.39" d="M236.972 331.134H243.018V337.17H236.972V331.134Z" fill="white"/>
<path opacity="0.47" d="M228.682 331.134H234.727V337.17H228.682V331.134Z" fill="white"/>
<path opacity="0.28" d="M261.844 339.066H267.889V345.102H261.844V339.066Z" fill="white"/>
<path opacity="0.2" d="M253.553 339.066H259.599V345.102H253.553V339.066Z" fill="white"/>
<path opacity="0.04" d="M245.263 339.066H251.308V345.102H245.263V339.066Z" fill="white"/>
<path opacity="0.43" d="M236.972 339.066H243.018V345.102H236.972V339.066Z" fill="white"/>
<path opacity="0.48" d="M228.682 339.066H234.727V345.102H228.682V339.066Z" fill="white"/>
<path opacity="0.28" d="M261.844 346.999H267.889V353.035H261.844V346.999Z" fill="white"/>
<path opacity="0.19" d="M253.553 346.999H259.599V353.035H253.553V346.999Z" fill="white"/>
<path opacity="0.01" d="M245.263 346.999H251.308V353.035H245.263V346.999Z" fill="white"/>
<path opacity="0.27" d="M236.972 346.999H243.018V353.035H236.972V346.999Z" fill="white"/>
<path opacity="0.24" d="M228.682 346.999H234.727V353.035H228.682V346.999Z" fill="white"/>
<path opacity="0.07" d="M261.844 355.104H267.889V361.14H261.844V355.104Z" fill="white"/>
<path opacity="0.25" d="M253.553 355.104H259.599V361.14H253.553V355.104Z" fill="white"/>
<path opacity="0.26" d="M245.263 355.104H251.308V361.14H245.263V355.104Z" fill="white"/>
<path opacity="0.39" d="M236.972 355.104H243.018V361.14H236.972V355.104Z" fill="white"/>
<path opacity="0.22" d="M228.682 355.104H234.727V361.14H228.682V355.104Z" fill="white"/>
<path opacity="0.15" d="M261.844 363.036H267.889V369.072H261.844V363.036Z" fill="white"/>
<path opacity="0.23" d="M253.553 363.036H259.599V369.072H253.553V363.036Z" fill="white"/>
<path opacity="0.05" d="M245.263 363.036H251.308V369.072H245.263V363.036Z" fill="white"/>
<path opacity="0.2" d="M236.972 363.036H243.018V369.072H236.972V363.036Z" fill="white"/>
<path opacity="0.31" d="M228.682 363.036H234.727V369.072H228.682V363.036Z" fill="white"/>
<path opacity="0.15" d="M261.844 370.969H267.889V377.004H261.844V370.969Z" fill="white"/>
<path opacity="0.33" d="M253.553 370.969H259.599V377.004H253.553V370.969Z" fill="white"/>
<path opacity="0.46" d="M245.263 370.969H251.308V377.004H245.263V370.969Z" fill="white"/>
<path opacity="0.25" d="M236.972 370.969H243.018V377.004H236.972V370.969Z" fill="white"/>
<path opacity="0.43" d="M228.682 370.969H234.727V377.004H228.682V370.969Z" fill="white"/>
<path opacity="0.4" d="M261.844 378.901H267.889V384.937H261.844V378.901Z" fill="white"/>
<path opacity="0.39" d="M253.553 378.901H259.599V384.937H253.553V378.901Z" fill="white"/>
<path opacity="0.01" d="M245.263 378.901H251.308V384.937H245.263V378.901Z" fill="white"/>
<path opacity="0.12" d="M236.972 378.901H243.018V384.937H236.972V378.901Z" fill="white"/>
<path opacity="0.07" d="M228.682 378.901H234.727V384.937H228.682V378.901Z" fill="white"/>
<path opacity="0.07" d="M261.844 386.834H267.889V392.87H261.844V386.834Z" fill="white"/>
<path opacity="0.02" d="M253.553 386.834H259.599V392.87H253.553V386.834Z" fill="white"/>
<path opacity="0.12" d="M245.263 386.834H251.308V392.87H245.263V386.834Z" fill="white"/>
<path opacity="0.23" d="M236.972 386.834H243.018V392.87H236.972V386.834Z" fill="white"/>
<path opacity="0.26" d="M228.682 386.834H234.727V392.87H228.682V386.834Z" fill="white"/>
<path opacity="0.27" d="M261.844 394.766H267.889V400.802H261.844V394.766Z" fill="white"/>
<path opacity="0.38" d="M253.553 394.766H259.599V400.802H253.553V394.766Z" fill="white"/>
<path opacity="0.05" d="M245.263 394.766H251.308V400.802H245.263V394.766Z" fill="white"/>
<path opacity="0.45" d="M236.972 394.766H243.018V400.802H236.972V394.766Z" fill="white"/>
<path opacity="0.15" d="M228.682 394.766H234.727V400.802H228.682V394.766Z" fill="white"/>
<path opacity="0.06" d="M261.844 402.699H267.889V408.734H261.844V402.699Z" fill="white"/>
<path opacity="0.47" d="M253.553 402.699H259.599V408.734H253.553V402.699Z" fill="white"/>
<path opacity="0.15" d="M245.263 402.699H251.308V408.734H245.263V402.699Z" fill="white"/>
<path opacity="0.44" d="M236.972 402.699H243.018V408.734H236.972V402.699Z" fill="white"/>
<path opacity="0.14" d="M228.682 402.699H234.727V408.734H228.682V402.699Z" fill="white"/>
<path opacity="0.15" d="M261.844 410.631H267.889V416.667H261.844V410.631Z" fill="white"/>
<path opacity="0.43" d="M253.553 410.631H259.599V416.667H253.553V410.631Z" fill="white"/>
<path opacity="0.07" d="M245.263 410.631H251.308V416.667H245.263V410.631Z" fill="white"/>
<path opacity="0.47" d="M236.972 410.631H243.018V416.667H236.972V410.631Z" fill="white"/>
<path opacity="0.11" d="M228.682 410.631H234.727V416.667H228.682V410.631Z" fill="white"/>
<path opacity="0.07" d="M261.844 418.564H267.889V424.599H261.844V418.564Z" fill="white"/>
<path opacity="0.34" d="M253.553 418.564H259.599V424.599H253.553V418.564Z" fill="white"/>
<path opacity="0.5" d="M245.263 418.564H251.308V424.599H245.263V418.564Z" fill="white"/>
<path opacity="0.36" d="M236.972 418.564H243.018V424.599H236.972V418.564Z" fill="white"/>
<path opacity="0.34" d="M228.682 418.564H234.727V424.599H228.682V418.564Z" fill="white"/>
<path opacity="0.47" d="M261.844 426.496H267.889V432.532H261.844V426.496Z" fill="white"/>
<path opacity="0.41" d="M253.553 426.496H259.599V432.532H253.553V426.496Z" fill="white"/>
<path opacity="0.3" d="M245.263 426.496H251.308V432.532H245.263V426.496Z" fill="white"/>
<path opacity="0.33" d="M236.972 426.496H243.018V432.532H236.972V426.496Z" fill="white"/>
<path opacity="0.12" d="M228.682 426.496H234.727V432.532H228.682V426.496Z" fill="white"/>
<path opacity="0.24" d="M261.844 434.428H267.889V440.464H261.844V434.428Z" fill="white"/>
<path opacity="0.29" d="M253.553 434.428H259.599V440.464H253.553V434.428Z" fill="white"/>
<path opacity="0.27" d="M236.972 434.428H243.018V440.464H236.972V434.428Z" fill="white"/>
<path opacity="0.04" d="M228.682 434.428H234.727V440.464H228.682V434.428Z" fill="white"/>
<path opacity="0.11" d="M261.844 442.361H267.889V448.396H261.844V442.361Z" fill="white"/>
<path opacity="0.05" d="M253.553 442.361H259.599V448.396H253.553V442.361Z" fill="white"/>
<path opacity="0.04" d="M245.263 442.361H251.308V448.396H245.263V442.361Z" fill="white"/>
<path opacity="0.02" d="M236.972 442.361H243.018V448.396H236.972V442.361Z" fill="white"/>
<path opacity="0.3" d="M191.547 307.337H197.592V313.373H191.547V307.337Z" fill="white"/>
<path opacity="0.72" d="M183.602 307.337H189.647V313.373H183.602V307.337Z" fill="white"/>
<path opacity="0.7" d="M175.484 307.337H181.529V313.373H175.484V307.337Z" fill="white"/>
<path opacity="0.52" d="M167.366 307.337H173.411V313.373H167.366V307.337Z" fill="white"/>
<path opacity="0.2" d="M159.248 307.337H165.294V313.373H159.248V307.337Z" fill="white"/>
<path opacity="0.32" d="M151.303 307.337H157.348V313.373H151.303V307.337Z" fill="white"/>
<path opacity="0.13" d="M143.185 307.337H149.23V313.373H143.185V307.337Z" fill="white"/>
<path opacity="0.38" d="M135.067 307.337H141.113V313.373H135.067V307.337Z" fill="white"/>
<path opacity="0.61" d="M127.122 307.337H133.167V313.373H127.122V307.337Z" fill="white"/>
<path d="M119.004 307.337H125.05V313.373H119.004V307.337Z" fill="white"/>
<path opacity="0.91" d="M110.887 307.337H116.932V313.373H110.887V307.337Z" fill="white"/>
<path opacity="0.66" d="M191.547 315.27H197.592V321.305H191.547V315.27Z" fill="white"/>
<path opacity="0.31" d="M183.602 315.27H189.647V321.305H183.602V315.27Z" fill="white"/>
<path opacity="0.95" d="M175.484 315.27H181.529V321.305H175.484V315.27Z" fill="white"/>
<path opacity="0.7" d="M167.366 315.27H173.411V321.305H167.366V315.27Z" fill="white"/>
<path opacity="0.12" d="M159.248 315.27H165.294V321.305H159.248V315.27Z" fill="white"/>
<path opacity="0.24" d="M151.303 315.27H157.348V321.305H151.303V315.27Z" fill="white"/>
<path opacity="0.66" d="M143.185 315.27H149.23V321.305H143.185V315.27Z" fill="white"/>
<path opacity="0.71" d="M135.067 315.27H141.113V321.305H135.067V315.27Z" fill="white"/>
<path opacity="0.42" d="M127.122 315.27H133.167V321.305H127.122V315.27Z" fill="white"/>
<path opacity="0.09" d="M119.004 315.27H125.05V321.305H119.004V315.27Z" fill="white"/>
<path opacity="0.32" d="M110.887 315.27H116.932V321.305H110.887V315.27Z" fill="white"/>
<path opacity="0.65" d="M191.547 323.202H197.592V329.237H191.547V323.202Z" fill="white"/>
<path d="M183.602 323.202H189.647V329.237H183.602V323.202Z" fill="white"/>
<path d="M175.484 323.202H181.529V329.237H175.484V323.202Z" fill="white"/>
<path opacity="0.71" d="M167.366 323.202H173.411V329.237H167.366V323.202Z" fill="white"/>
<path opacity="0.2" d="M159.248 323.202H165.294V329.237H159.248V323.202Z" fill="white"/>
<path opacity="0.19" d="M151.303 323.202H157.348V329.237H151.303V323.202Z" fill="white"/>
<path opacity="0.62" d="M143.185 323.202H149.23V329.237H143.185V323.202Z" fill="white"/>
<path opacity="0.93" d="M135.067 323.202H141.113V329.237H135.067V323.202Z" fill="white"/>
<path opacity="0.56" d="M127.122 323.202H133.167V329.237H127.122V323.202Z" fill="white"/>
<path opacity="0.57" d="M119.004 323.202H125.05V329.237H119.004V323.202Z" fill="white"/>
<path opacity="0.52" d="M110.887 323.202H116.932V329.237H110.887V323.202Z" fill="white"/>
<path opacity="0.74" d="M191.547 331.134H197.592V337.17H191.547V331.134Z" fill="white"/>
<path opacity="0.56" d="M183.602 331.134H189.647V337.17H183.602V331.134Z" fill="white"/>
<path opacity="0.78" d="M175.484 331.134H181.529V337.17H175.484V331.134Z" fill="white"/>
<path opacity="0.41" d="M167.366 331.134H173.411V337.17H167.366V331.134Z" fill="white"/>
<path opacity="0.14" d="M159.248 331.134H165.294V337.17H159.248V331.134Z" fill="white"/>
<path opacity="0.28" d="M151.303 331.134H157.348V337.17H151.303V331.134Z" fill="white"/>
<path opacity="0.36" d="M143.185 331.134H149.23V337.17H143.185V331.134Z" fill="white"/>
<path opacity="0.14" d="M135.067 331.134H141.113V337.17H135.067V331.134Z" fill="white"/>
<path opacity="0.5" d="M127.122 331.134H133.167V337.17H127.122V331.134Z" fill="white"/>
<path opacity="0.98" d="M119.004 331.134H125.05V337.17H119.004V331.134Z" fill="white"/>
<path opacity="0.59" d="M110.887 331.134H116.932V337.17H110.887V331.134Z" fill="white"/>
<path opacity="0.07" d="M191.547 339.066H197.592V345.102H191.547V339.066Z" fill="white"/>
<path opacity="0.1" d="M183.602 339.066H189.647V345.102H183.602V339.066Z" fill="white"/>
<path opacity="0.88" d="M175.484 339.066H181.529V345.102H175.484V339.066Z" fill="white"/>
<path opacity="0.68" d="M167.366 339.066H173.411V345.102H167.366V339.066Z" fill="white"/>
<path opacity="0.81" d="M159.248 339.066H165.294V345.102H159.248V339.066Z" fill="white"/>
<path opacity="0.62" d="M151.303 339.066H157.348V345.102H151.303V339.066Z" fill="white"/>
<path opacity="0.97" d="M143.185 339.066H149.23V345.102H143.185V339.066Z" fill="white"/>
<path opacity="0.81" d="M135.067 339.066H141.113V345.102H135.067V339.066Z" fill="white"/>
<path opacity="0.79" d="M127.122 339.066H133.167V345.102H127.122V339.066Z" fill="white"/>
<path opacity="0.03" d="M119.004 339.066H125.05V345.102H119.004V339.066Z" fill="white"/>
<path opacity="0.95" d="M110.887 339.066H116.932V345.102H110.887V339.066Z" fill="white"/>
<path opacity="0.62" d="M191.547 346.999H197.592V353.035H191.547V346.999Z" fill="white"/>
<path opacity="0.22" d="M183.602 346.999H189.647V353.035H183.602V346.999Z" fill="white"/>
<path opacity="0.42" d="M175.484 346.999H181.529V353.035H175.484V346.999Z" fill="white"/>
<path opacity="0.56" d="M167.366 346.999H173.411V353.035H167.366V346.999Z" fill="white"/>
<path opacity="0.03" d="M159.248 346.999H165.294V353.035H159.248V346.999Z" fill="white"/>
<path opacity="0.64" d="M151.303 346.999H157.348V353.035H151.303V346.999Z" fill="white"/>
<path opacity="0.82" d="M143.185 346.999H149.23V353.035H143.185V346.999Z" fill="white"/>
<path opacity="0.52" d="M135.067 346.999H141.113V353.035H135.067V346.999Z" fill="white"/>
<path opacity="0.46" d="M127.122 346.999H133.167V353.035H127.122V346.999Z" fill="white"/>
<path opacity="0.27" d="M119.004 346.999H125.05V353.035H119.004V346.999Z" fill="white"/>
<path opacity="0.46" d="M110.887 346.999H116.932V353.035H110.887V346.999Z" fill="white"/>
<path opacity="0.66" d="M191.547 355.104H197.592V361.14H191.547V355.104Z" fill="white"/>
<path opacity="0.7" d="M183.602 355.104H189.647V361.14H183.602V355.104Z" fill="white"/>
<path opacity="0.94" d="M175.484 355.104H181.529V361.14H175.484V355.104Z" fill="white"/>
<path opacity="0.5" d="M167.366 355.104H173.411V361.14H167.366V355.104Z" fill="white"/>
<path opacity="0.12" d="M159.248 355.104H165.294V361.14H159.248V355.104Z" fill="white"/>
<path opacity="0.36" d="M151.303 355.104H157.348V361.14H151.303V355.104Z" fill="white"/>
<path opacity="0.51" d="M143.185 355.104H149.23V361.14H143.185V355.104Z" fill="white"/>
<path opacity="0.37" d="M135.067 355.104H141.113V361.14H135.067V355.104Z" fill="white"/>
<path opacity="0.66" d="M127.122 355.104H133.167V361.14H127.122V355.104Z" fill="white"/>
<path opacity="0.42" d="M119.004 355.104H125.05V361.14H119.004V355.104Z" fill="white"/>
<path opacity="0.5" d="M110.887 355.104H116.932V361.14H110.887V355.104Z" fill="white"/>
<path opacity="0.52" d="M191.547 363.036H197.592V369.072H191.547V363.036Z" fill="white"/>
<path opacity="0.61" d="M183.602 363.036H189.647V369.072H183.602V363.036Z" fill="white"/>
<path opacity="0.84" d="M175.484 363.036H181.529V369.072H175.484V363.036Z" fill="white"/>
<path opacity="0.89" d="M167.366 363.036H173.411V369.072H167.366V363.036Z" fill="white"/>
<path opacity="0.33" d="M159.248 363.036H165.294V369.072H159.248V363.036Z" fill="white"/>
<path opacity="0.25" d="M151.303 363.036H157.348V369.072H151.303V363.036Z" fill="white"/>
<path opacity="0.95" d="M143.185 363.036H149.23V369.072H143.185V363.036Z" fill="white"/>
<path opacity="0.09" d="M135.067 363.036H141.113V369.072H135.067V363.036Z" fill="white"/>
<path opacity="0.44" d="M127.122 363.036H133.167V369.072H127.122V363.036Z" fill="white"/>
<path opacity="0.51" d="M119.004 363.036H125.05V369.072H119.004V363.036Z" fill="white"/>
<path opacity="0.97" d="M110.887 363.036H116.932V369.072H110.887V363.036Z" fill="white"/>
<path opacity="0.26" d="M191.547 370.969H197.592V377.004H191.547V370.969Z" fill="white"/>
<path opacity="0.92" d="M183.602 370.969H189.647V377.004H183.602V370.969Z" fill="white"/>
<path opacity="0.33" d="M175.484 370.969H181.529V377.004H175.484V370.969Z" fill="white"/>
<path opacity="0.23" d="M167.366 370.969H173.411V377.004H167.366V370.969Z" fill="white"/>
<path opacity="0.42" d="M159.248 370.969H165.294V377.004H159.248V370.969Z" fill="white"/>
<path opacity="0.57" d="M151.303 370.969H157.348V377.004H151.303V370.969Z" fill="white"/>
<path opacity="0.73" d="M143.185 370.969H149.23V377.004H143.185V370.969Z" fill="white"/>
<path opacity="0.87" d="M135.067 370.969H141.113V377.004H135.067V370.969Z" fill="white"/>
<path opacity="0.22" d="M127.122 370.969H133.167V377.004H127.122V370.969Z" fill="white"/>
<path opacity="0.89" d="M119.004 370.969H125.05V377.004H119.004V370.969Z" fill="white"/>
<path opacity="0.73" d="M110.887 370.969H116.932V377.004H110.887V370.969Z" fill="white"/>
<path opacity="0.35" d="M191.547 378.901H197.592V384.937H191.547V378.901Z" fill="white"/>
<path opacity="0.81" d="M183.602 378.901H189.647V384.937H183.602V378.901Z" fill="white"/>
<path opacity="0.56" d="M175.484 378.901H181.529V384.937H175.484V378.901Z" fill="white"/>
<path opacity="0.81" d="M167.366 378.901H173.411V384.937H167.366V378.901Z" fill="white"/>
<path opacity="0.87" d="M159.248 378.901H165.294V384.937H159.248V378.901Z" fill="white"/>
<path opacity="0.39" d="M151.303 378.901H157.348V384.937H151.303V378.901Z" fill="white"/>
<path opacity="0.31" d="M143.185 378.901H149.23V384.937H143.185V378.901Z" fill="white"/>
<path opacity="0.98" d="M135.067 378.901H141.113V384.937H135.067V378.901Z" fill="white"/>
<path opacity="0.17" d="M127.122 378.901H133.167V384.937H127.122V378.901Z" fill="white"/>
<path opacity="0.06" d="M119.004 378.901H125.05V384.937H119.004V378.901Z" fill="white"/>
<path opacity="0.57" d="M110.887 378.901H116.932V384.937H110.887V378.901Z" fill="white"/>
<path opacity="0.67" d="M191.547 386.834H197.592V392.87H191.547V386.834Z" fill="white"/>
<path opacity="0.83" d="M183.602 386.834H189.647V392.87H183.602V386.834Z" fill="white"/>
<path opacity="0.99" d="M175.484 386.834H181.529V392.87H175.484V386.834Z" fill="white"/>
<path opacity="0.62" d="M167.366 386.834H173.411V392.87H167.366V386.834Z" fill="white"/>
<path opacity="0.87" d="M159.248 386.834H165.294V392.87H159.248V386.834Z" fill="white"/>
<path opacity="0.14" d="M151.303 386.834H157.348V392.87H151.303V386.834Z" fill="white"/>
<path opacity="0.12" d="M143.185 386.834H149.23V392.87H143.185V386.834Z" fill="white"/>
<path opacity="0.11" d="M135.067 386.834H141.113V392.87H135.067V386.834Z" fill="white"/>
<path opacity="0.39" d="M127.122 386.834H133.167V392.87H127.122V386.834Z" fill="white"/>
<path opacity="0.58" d="M119.004 386.834H125.05V392.87H119.004V386.834Z" fill="white"/>
<path opacity="0.54" d="M110.887 386.834H116.932V392.87H110.887V386.834Z" fill="white"/>
<path opacity="0.99" d="M191.547 394.766H197.592V400.802H191.547V394.766Z" fill="white"/>
<path opacity="0.28" d="M183.602 394.766H189.647V400.802H183.602V394.766Z" fill="white"/>
<path opacity="0.78" d="M175.484 394.766H181.529V400.802H175.484V394.766Z" fill="white"/>
<path opacity="0.65" d="M167.366 394.766H173.411V400.802H167.366V394.766Z" fill="white"/>
<path opacity="0.32" d="M159.248 394.766H165.294V400.802H159.248V394.766Z" fill="white"/>
<path opacity="0.55" d="M151.303 394.766H157.348V400.802H151.303V394.766Z" fill="white"/>
<path opacity="0.4" d="M143.185 394.766H149.23V400.802H143.185V394.766Z" fill="white"/>
<path opacity="0.22" d="M135.067 394.766H141.113V400.802H135.067V394.766Z" fill="white"/>
<path opacity="0.87" d="M127.122 394.766H133.167V400.802H127.122V394.766Z" fill="white"/>
<path opacity="0.02" d="M119.004 394.766H125.05V400.802H119.004V394.766Z" fill="white"/>
<path opacity="0.39" d="M110.887 394.766H116.932V400.802H110.887V394.766Z" fill="white"/>
<path opacity="0.89" d="M191.547 402.699H197.592V408.734H191.547V402.699Z" fill="white"/>
<path opacity="0.97" d="M183.602 402.699H189.647V408.734H183.602V402.699Z" fill="white"/>
<path opacity="0.79" d="M175.484 402.699H181.529V408.734H175.484V402.699Z" fill="white"/>
<path opacity="0.41" d="M167.366 402.699H173.411V408.734H167.366V402.699Z" fill="white"/>
<path opacity="0.13" d="M159.248 402.699H165.294V408.734H159.248V402.699Z" fill="white"/>
<path opacity="0.9" d="M151.303 402.699H157.348V408.734H151.303V402.699Z" fill="white"/>
<path opacity="0.98" d="M143.185 402.699H149.23V408.734H143.185V402.699Z" fill="white"/>
<path opacity="0.67" d="M135.067 402.699H141.113V408.734H135.067V402.699Z" fill="white"/>
<path opacity="0.65" d="M127.122 402.699H133.167V408.734H127.122V402.699Z" fill="white"/>
<path opacity="0.89" d="M119.004 402.699H125.05V408.734H119.004V402.699Z" fill="white"/>
<path opacity="0.98" d="M110.887 402.699H116.932V408.734H110.887V402.699Z" fill="white"/>
<path opacity="0.29" d="M191.547 410.631H197.592V416.667H191.547V410.631Z" fill="white"/>
<path opacity="0.74" d="M183.602 410.631H189.647V416.667H183.602V410.631Z" fill="white"/>
<path opacity="0.64" d="M175.484 410.631H181.529V416.667H175.484V410.631Z" fill="white"/>
<path opacity="0.65" d="M167.366 410.631H173.411V416.667H167.366V410.631Z" fill="white"/>
<path opacity="0.07" d="M159.248 410.631H165.294V416.667H159.248V410.631Z" fill="white"/>
<path opacity="0.16" d="M151.303 410.631H157.348V416.667H151.303V410.631Z" fill="white"/>
<path opacity="0.84" d="M143.185 410.631H149.23V416.667H143.185V410.631Z" fill="white"/>
<path opacity="0.88" d="M135.067 410.631H141.113V416.667H135.067V410.631Z" fill="white"/>
<path opacity="0.57" d="M127.122 410.631H133.167V416.667H127.122V410.631Z" fill="white"/>
<path opacity="0.31" d="M119.004 410.631H125.05V416.667H119.004V410.631Z" fill="white"/>
<path opacity="0.03" d="M110.887 410.631H116.932V416.667H110.887V410.631Z" fill="white"/>
<path opacity="0.3" d="M191.547 418.564H197.592V424.599H191.547V418.564Z" fill="white"/>
<path opacity="0.59" d="M183.602 418.564H189.647V424.599H183.602V418.564Z" fill="white"/>
<path opacity="0.93" d="M175.484 418.564H181.529V424.599H175.484V418.564Z" fill="white"/>
<path opacity="0.06" d="M167.366 418.564H173.411V424.599H167.366V418.564Z" fill="white"/>
<path opacity="0.74" d="M159.248 418.564H165.294V424.599H159.248V418.564Z" fill="white"/>
<path opacity="0.22" d="M151.303 418.564H157.348V424.599H151.303V418.564Z" fill="white"/>
<path opacity="0.51" d="M143.185 418.564H149.23V424.599H143.185V418.564Z" fill="white"/>
<path opacity="0.7" d="M135.067 418.564H141.113V424.599H135.067V418.564Z" fill="white"/>
<path opacity="0.47" d="M127.122 418.564H133.167V424.599H127.122V418.564Z" fill="white"/>
<path opacity="0.08" d="M119.004 418.564H125.05V424.599H119.004V418.564Z" fill="white"/>
<path opacity="0.93" d="M110.887 418.564H116.932V424.599H110.887V418.564Z" fill="white"/>
<path opacity="0.81" d="M191.547 426.496H197.592V432.532H191.547V426.496Z" fill="white"/>
<path opacity="0.9" d="M183.602 426.496H189.647V432.532H183.602V426.496Z" fill="white"/>
<path opacity="0.55" d="M175.484 426.496H181.529V432.532H175.484V426.496Z" fill="white"/>
<path opacity="0.14" d="M167.366 426.496H173.411V432.532H167.366V426.496Z" fill="white"/>
<path opacity="0.66" d="M159.248 426.496H165.294V432.532H159.248V426.496Z" fill="white"/>
<path opacity="0.92" d="M151.303 426.496H157.348V432.532H151.303V426.496Z" fill="white"/>
<path opacity="0.4" d="M143.185 426.496H149.23V432.532H143.185V426.496Z" fill="white"/>
<path opacity="0.6" d="M135.067 426.496H141.113V432.532H135.067V426.496Z" fill="white"/>
<path opacity="0.99" d="M127.122 426.496H133.167V432.532H127.122V426.496Z" fill="white"/>
<path opacity="0.68" d="M119.004 426.496H125.05V432.532H119.004V426.496Z" fill="white"/>
<path opacity="0.01" d="M110.887 426.496H116.932V432.532H110.887V426.496Z" fill="white"/>
<path opacity="0.82" d="M191.547 434.428H197.592V440.464H191.547V434.428Z" fill="white"/>
<path opacity="0.92" d="M183.602 434.428H189.647V440.464H183.602V434.428Z" fill="white"/>
<path opacity="0.29" d="M175.484 434.428H181.529V440.464H175.484V434.428Z" fill="white"/>
<path opacity="0.73" d="M167.366 434.428H173.411V440.464H167.366V434.428Z" fill="white"/>
<path opacity="0.42" d="M159.248 434.428H165.294V440.464H159.248V434.428Z" fill="white"/>
<path opacity="0.06" d="M151.303 434.428H157.348V440.464H151.303V434.428Z" fill="white"/>
<path opacity="0.7" d="M143.185 434.428H149.23V440.464H143.185V434.428Z" fill="white"/>
<path opacity="0.97" d="M135.067 434.428H141.113V440.464H135.067V434.428Z" fill="white"/>
<path opacity="0.51" d="M127.122 434.428H133.167V440.464H127.122V434.428Z" fill="white"/>
<path opacity="0.69" d="M119.004 434.428H125.05V440.464H119.004V434.428Z" fill="white"/>
<path opacity="0.49" d="M110.887 434.428H116.932V440.464H110.887V434.428Z" fill="white"/>
<path opacity="0.45" d="M191.547 442.361H197.592V448.396H191.547V442.361Z" fill="white"/>
<path opacity="0.46" d="M183.602 442.361H189.647V448.396H183.602V442.361Z" fill="white"/>
<path opacity="0.04" d="M175.484 442.361H181.529V448.396H175.484V442.361Z" fill="white"/>
<path opacity="0.56" d="M167.366 442.361H173.411V448.396H167.366V442.361Z" fill="white"/>
<path opacity="0.4" d="M159.248 442.361H165.294V448.396H159.248V442.361Z" fill="white"/>
<path opacity="0.59" d="M151.303 442.361H157.348V448.396H151.303V442.361Z" fill="white"/>
<path opacity="0.82" d="M143.185 442.361H149.23V448.396H143.185V442.361Z" fill="white"/>
<path opacity="0.99" d="M135.067 442.361H141.113V448.396H135.067V442.361Z" fill="white"/>
<path opacity="0.1" d="M127.122 442.361H133.167V448.396H127.122V442.361Z" fill="white"/>
<path opacity="0.87" d="M119.004 442.361H125.05V448.396H119.004V442.361Z" fill="white"/>
<path d="M110.887 442.361H116.932V448.396H110.887V442.361Z" fill="white"/>
<path d="M293.625 268.538H350.622V446.845H293.625V268.538Z" fill="#333333"/>
<path d="M324.714 259.57H350.622V269.572H324.714V259.57Z" fill="#333333"/>
<path d="M335.596 253.707H350.622V259.57H335.596V253.707Z" fill="#333333"/>
<path opacity="0.25" d="M317.633 281.126H326.96V290.438H317.633V281.126Z" fill="white"/>
<path opacity="0.15" d="M317.633 304.061H326.96V313.373H317.633V304.061Z" fill="white"/>
<path opacity="0.19" d="M317.633 349.759H326.96V359.071H317.633V349.759Z" fill="white"/>
<path opacity="0.17" d="M317.633 372.521H326.96V381.833H317.633V372.521Z" fill="white"/>
<path opacity="0.22" d="M317.633 395.284H326.96V404.596H317.633V395.284Z" fill="white"/>
<path d="M317.633 418.219H326.96V427.531H317.633V418.219Z" fill="white"/>
<path d="M335.941 367.865H389.312V383.558H335.941V367.865Z" fill="#333333"/>
<path d="M309.342 367.865H335.941V383.558H309.342V367.865Z" fill="#4D4D4D"/>
<path d="M389.312 367.865L372.73 359.933L335.941 367.865H389.312Z" fill="#333333"/>
<path d="M372.73 359.933L335.941 367.865H309.342L372.73 359.933Z" fill="#4D4D4D"/>
<path d="M323.505 378.902H401.575V450.294H323.505V378.902Z" fill="#333333"/>
<path d="M297.597 378.902H323.505V450.294H297.597V378.902Z" fill="#4D4D4D"/>
<path opacity="0.81" d="M303.642 383.903H317.633V389.076H303.642V383.903Z" fill="white"/>
<path opacity="0.76" d="M303.642 393.387H317.633V398.56H303.642V393.387Z" fill="white"/>
<path opacity="0.32" d="M303.642 402.872H317.633V408.045H303.642V402.872Z" fill="white"/>
<path opacity="0.49" d="M303.642 412.528H317.633V417.702H303.642V412.528Z" fill="white"/>
<path opacity="0.99" d="M303.642 431.497H317.633V436.67H303.642V431.497Z" fill="white"/>
<path opacity="0.1" d="M375.148 383.903H389.139V389.076H375.148V383.903Z" fill="white"/>
<path opacity="0.04" d="M355.631 383.903H369.622V389.076H355.631V383.903Z" fill="white"/>
<path opacity="0.07" d="M335.941 383.903H349.931V389.076H335.941V383.903Z" fill="white"/>
<path opacity="0.06" d="M375.148 393.387H389.139V398.56H375.148V393.387Z" fill="white"/>
<path opacity="0.44" d="M355.631 393.387H369.622V398.56H355.631V393.387Z" fill="white"/>
<path opacity="0.24" d="M335.941 393.387H349.931V398.56H335.941V393.387Z" fill="white"/>
<path opacity="0.55" d="M375.148 402.871H389.139V408.045H375.148V402.871Z" fill="white"/>
<path opacity="0.02" d="M355.631 402.871H369.622V408.045H355.631V402.871Z" fill="white"/>
<path opacity="0.14" d="M335.941 402.871H349.931V408.045H335.941V402.871Z" fill="white"/>
<path opacity="0.43" d="M375.148 412.528H389.139V417.702H375.148V412.528Z" fill="white"/>
<path opacity="0.41" d="M355.631 412.528H369.622V417.702H355.631V412.528Z" fill="white"/>
<path opacity="0.46" d="M335.941 412.528H349.931V417.702H335.941V412.528Z" fill="white"/>
<path opacity="0.45" d="M375.148 422.013H389.139V427.186H375.148V422.013Z" fill="white"/>
<path opacity="0.33" d="M355.631 422.013H369.622V427.186H355.631V422.013Z" fill="white"/>
<path opacity="0.05" d="M335.941 422.013H349.931V427.186H335.941V422.013Z" fill="white"/>
<path opacity="0.27" d="M375.148 431.498H389.139V436.671H375.148V431.498Z" fill="white"/>
<path opacity="0.15" d="M355.631 431.498H369.622V436.671H355.631V431.498Z" fill="white"/>
<path opacity="0.7" d="M335.941 431.498H349.931V436.671H335.941V431.498Z" fill="white"/>
<path d="M703.317 307.51H751.679V456.33H703.317V307.51Z" fill="#333333"/>
<path d="M648.219 307.51H703.144V456.33H648.219V307.51Z" fill="#4D4D4D"/>
<path d="M703.317 320.099H751.679V322.685H703.317V320.099Z" fill="#4D4D4D"/>
<path d="M648.219 320.099H703.144V322.685H648.219V320.099Z" fill="#333333"/>
<path opacity="0.32" d="M728.361 325.617H733.543V330.79H728.361V325.617Z" fill="white"/>
<path opacity="0.25" d="M721.28 325.617H726.462V330.79H721.28V325.617Z" fill="white"/>
<path opacity="0.12" d="M707.117 325.617H712.298V330.79H707.117V325.617Z" fill="white"/>
<path opacity="0.22" d="M728.361 332.687H733.543V337.86H728.361V332.687Z" fill="white"/>
<path opacity="0.47" d="M721.28 332.687H726.462V337.86H721.28V332.687Z" fill="white"/>
<path opacity="0.22" d="M714.198 332.687H719.38V337.86H714.198V332.687Z" fill="white"/>
<path opacity="0.32" d="M707.117 332.687H712.298V337.86H707.117V332.687Z" fill="white"/>
<path opacity="0.18" d="M728.361 339.757H733.543V344.931H728.361V339.757Z" fill="white"/>
<path opacity="0.28" d="M721.28 339.757H726.462V344.931H721.28V339.757Z" fill="white"/>
<path opacity="0.2" d="M707.117 339.757H712.298V344.931H707.117V339.757Z" fill="white"/>
<path opacity="0.33" d="M728.361 346.827H733.543V352H728.361V346.827Z" fill="white"/>
<path opacity="0.05" d="M721.28 346.827H726.462V352H721.28V346.827Z" fill="white"/>
<path opacity="0.08" d="M714.198 346.827H719.38V352H714.198V346.827Z" fill="white"/>
<path opacity="0.08" d="M721.28 353.897H726.462V359.071H721.28V353.897Z" fill="white"/>
<path opacity="0.02" d="M714.198 353.897H719.38V359.071H714.198V353.897Z" fill="white"/>
<path opacity="0.05" d="M728.361 360.968H733.543V366.141H728.361V360.968Z" fill="white"/>
<path opacity="0.2" d="M721.28 360.968H726.462V366.141H721.28V360.968Z" fill="white"/>
<path opacity="0.23" d="M714.198 360.968H719.38V366.141H714.198V360.968Z" fill="white"/>
<path opacity="0.14" d="M728.361 368.038H733.543V373.211H728.361V368.038Z" fill="white"/>
<path opacity="0.24" d="M714.198 368.038H719.38V373.211H714.198V368.038Z" fill="white"/>
<path opacity="0.23" d="M728.361 375.108H733.543V380.281H728.361V375.108Z" fill="white"/>
<path opacity="0.02" d="M721.28 375.108H726.462V380.281H721.28V375.108Z" fill="white"/>
<path opacity="0.04" d="M714.198 375.108H719.38V380.281H714.198V375.108Z" fill="white"/>
<path opacity="0.3" d="M707.117 375.108H712.298V380.281H707.117V375.108Z" fill="white"/>
<path opacity="0.4" d="M707.117 382.006H712.298V387.179H707.117V382.006Z" fill="white"/>
<path opacity="0.12" d="M728.361 389.076H733.543V394.25H728.361V389.076Z" fill="white"/>
<path opacity="0.19" d="M714.198 389.076H719.38V394.25H714.198V389.076Z" fill="white"/>
<path opacity="0.43" d="M707.117 389.076H712.298V394.25H707.117V389.076Z" fill="white"/>
<path opacity="0.42" d="M721.28 396.146H726.462V401.32H721.28V396.146Z" fill="white"/>
<path opacity="0.31" d="M707.117 396.146H712.298V401.32H707.117V396.146Z" fill="white"/>
<path opacity="0.31" d="M721.28 403.217H726.462V408.39H721.28V403.217Z" fill="white"/>
<path opacity="0.33" d="M707.117 403.217H712.298V408.39H707.117V403.217Z" fill="white"/>
<path opacity="0.17" d="M721.28 410.287H726.462V415.46H721.28V410.287Z" fill="white"/>
<path opacity="0.01" d="M714.198 410.287H719.38V415.46H714.198V410.287Z" fill="white"/>
<path opacity="0.48" d="M707.117 410.287H712.298V415.46H707.117V410.287Z" fill="white"/>
<path opacity="0.28" d="M728.361 417.357H733.543V422.53H728.361V417.357Z" fill="white"/>
<path opacity="0.02" d="M721.28 417.357H726.462V422.53H721.28V417.357Z" fill="white"/>
<path opacity="0.17" d="M714.198 417.357H719.38V422.53H714.198V417.357Z" fill="white"/>
<path opacity="0.42" d="M707.117 417.357H712.298V422.53H707.117V417.357Z" fill="white"/>
<path opacity="0.11" d="M728.361 424.427H733.543V429.601H728.361V424.427Z" fill="white"/>
<path opacity="0.02" d="M721.28 424.427H726.462V429.601H721.28V424.427Z" fill="white"/>
<path opacity="0.3" d="M707.117 424.427H712.298V429.601H707.117V424.427Z" fill="white"/>
<path opacity="0.19" d="M728.361 431.498H733.543V436.671H728.361V431.498Z" fill="white"/>
<path opacity="0.05" d="M721.28 431.498H726.462V436.671H721.28V431.498Z" fill="white"/>
<path opacity="0.2" d="M707.117 431.498H712.298V436.671H707.117V431.498Z" fill="white"/>
<path opacity="0.27" d="M721.28 438.568H726.462V443.741H721.28V438.568Z" fill="white"/>
<path opacity="0.13" d="M714.198 438.568H719.38V443.741H714.198V438.568Z" fill="white"/>
<path opacity="0.46" d="M728.361 445.638H733.543V450.811H728.361V445.638Z" fill="white"/>
<path opacity="0.12" d="M721.28 445.638H726.462V450.811H721.28V445.638Z" fill="white"/>
<path opacity="0.04" d="M714.198 445.638H719.38V450.811H714.198V445.638Z" fill="white"/>
<path opacity="0.3" d="M707.117 445.638H712.298V450.811H707.117V445.638Z" fill="white"/>
<path opacity="0.08" d="M714.198 325.617H719.38V330.79H714.198V325.617Z" fill="white"/>
<path opacity="0.08" d="M714.198 339.757H719.38V344.931H714.198V339.757Z" fill="white"/>
<path opacity="0.01" d="M707.117 346.827H712.298V352H707.117V346.827Z" fill="white"/>
<path opacity="0.15" d="M728.361 353.897H733.543V359.071H728.361V353.897Z" fill="white"/>
<path opacity="0.12" d="M707.117 353.897H712.298V359.071H707.117V353.897Z" fill="white"/>
<path opacity="0.13" d="M721.28 368.038H726.462V373.211H721.28V368.038Z" fill="white"/>
<path opacity="0.07" d="M707.117 368.038H712.298V373.211H707.117V368.038Z" fill="white"/>
<path opacity="0.02" d="M728.361 382.006H733.543V387.179H728.361V382.006Z" fill="white"/>
<path opacity="0.02" d="M721.28 382.006H726.462V387.179H721.28V382.006Z" fill="white"/>
<path opacity="0.14" d="M714.198 382.006H719.38V387.179H714.198V382.006Z" fill="white"/>
<path opacity="0.09" d="M728.361 396.146H733.543V401.32H728.361V396.146Z" fill="white"/>
<path opacity="0.02" d="M714.198 396.146H719.38V401.32H714.198V396.146Z" fill="white"/>
<path opacity="0.19" d="M728.361 403.217H733.543V408.39H728.361V403.217Z" fill="white"/>
<path opacity="0.06" d="M714.198 403.217H719.38V408.39H714.198V403.217Z" fill="white"/>
<path opacity="0.16" d="M728.361 410.287H733.543V415.46H728.361V410.287Z" fill="white"/>
<path opacity="0.04" d="M714.198 424.427H719.38V429.601H714.198V424.427Z" fill="white"/>
<path opacity="0.04" d="M714.198 431.498H719.38V436.671H714.198V431.498Z" fill="white"/>
<path opacity="0.18" d="M707.117 438.568H712.298V443.741H707.117V438.568Z" fill="white"/>
<g opacity="0.7">
<path opacity="0.7" d="M692.781 322.685H698.135V449.777H692.781V322.685Z" fill="#E6E6E6"/>
<path opacity="0.7" d="M683.627 322.685H688.981V449.777H683.627V322.685Z" fill="#E6E6E6"/>
<path opacity="0.7" d="M674.3 322.685H679.654V449.777H674.3V322.685Z" fill="#E6E6E6"/>
<path opacity="0.7" d="M664.973 322.685H670.327V449.777H664.973V322.685Z" fill="#E6E6E6"/>
<path opacity="0.7" d="M655.646 322.685H661V449.777H655.646V322.685Z" fill="#E6E6E6"/>
</g>
<path d="M620.584 449.777H728.016L620.584 356.312V449.777Z" fill="#333333"/>
<path d="M629.738 433.222H666.7V453.915H629.738V433.222Z" fill="#4D4D4D"/>
<path d="M632.502 428.394H663.937V438.051H632.502V428.394Z" fill="#4D4D4D"/>
<path d="M636.129 431.325H660.483L652.019 417.185H644.592L636.129 431.325Z" fill="#4D4D4D"/>
<path d="M639.583 437.361H656.855V449.949H639.583V437.361Z" fill="white"/>
<path d="M637.511 442.362H658.928V444.948H637.511V442.362Z" fill="#4D4D4D"/>
<path d="M464.79 467.194C464.272 480.644 474.635 492.198 488.28 492.715C501.752 493.233 513.325 482.714 513.843 469.263C514.361 455.812 503.998 444.259 490.353 443.741C476.881 443.224 465.481 453.743 464.79 467.194Z" fill="#333333"/>
<path d="M468.935 460.468C468.59 468.228 474.635 474.781 482.408 475.126C490.18 475.471 496.743 469.435 497.089 461.675C497.434 453.915 491.389 447.362 483.617 447.017C475.844 446.673 469.281 452.708 468.935 460.468Z" fill="#4D4D4D"/>
<path d="M711.435 441.844C711.435 445.121 714.198 447.88 717.48 447.88C720.762 447.88 723.525 445.121 723.525 441.844C723.525 438.568 720.762 435.809 717.48 435.809C714.198 435.809 711.435 438.396 711.435 441.844Z" fill="#333333"/>
<path d="M709.362 447.88C709.362 452.364 712.989 455.985 717.48 455.985C721.971 455.985 725.598 452.364 725.598 447.88C725.598 443.396 721.971 439.775 717.48 439.775C712.989 439.775 709.362 443.396 709.362 447.88Z" fill="#333333"/>
<path d="M713.507 436.671C713.507 438.913 715.235 440.81 717.48 440.81C719.725 440.81 721.453 438.913 721.453 436.671C721.453 434.429 719.725 432.532 717.48 432.532C715.235 432.532 713.507 434.429 713.507 436.671Z" fill="#333333"/>
<path d="M712.298 441.844C712.298 443.741 713.853 445.293 715.753 445.293C717.653 445.293 719.207 443.741 719.207 441.844C719.207 439.947 717.653 438.396 715.753 438.396C713.853 438.396 712.298 439.947 712.298 441.844Z" fill="#4D4D4D"/>
<path d="M714.026 437.188C714.026 438.568 715.235 439.775 716.616 439.775C717.998 439.775 719.207 438.568 719.207 437.188C719.207 435.809 717.998 434.602 716.616 434.602C715.235 434.429 714.026 435.636 714.026 437.188Z" fill="#4D4D4D"/>
<path d="M596.23 454.433C596.23 458.744 599.857 462.365 604.175 462.365C608.493 462.365 612.121 458.744 612.121 454.433C612.121 450.121 608.666 446.5 604.175 446.5C599.857 446.5 596.23 450.121 596.23 454.433Z" fill="#333333"/>
<path d="M598.994 447.707C598.994 450.639 601.239 453.053 604.175 453.053C607.112 453.053 609.357 450.639 609.357 447.707C609.357 444.776 607.112 442.362 604.175 442.362C601.412 442.362 598.994 444.776 598.994 447.707Z" fill="#333333"/>
<path d="M599.685 448.225C599.685 450.121 601.239 451.673 603.139 451.673C605.039 451.673 606.594 450.121 606.594 448.225C606.594 446.328 605.039 444.776 603.139 444.776C601.239 444.776 599.685 446.328 599.685 448.225Z" fill="#4D4D4D"/>
<path d="M606.939 460.296C607.803 468.573 615.23 474.436 623.348 473.574C631.638 472.712 637.511 465.297 636.647 457.192C635.783 448.915 628.356 443.051 620.239 443.914C612.121 444.776 606.075 452.019 606.939 460.296Z" fill="#333333"/>
<path d="M610.739 447.018C611.257 452.536 616.093 456.675 621.62 456.157C626.975 455.64 630.947 450.639 630.429 445.121C629.911 439.603 625.075 435.464 619.548 435.981C614.021 436.499 610.221 441.5 610.739 447.018Z" fill="#333333"/>
<path d="M612.121 448.052C612.466 451.674 615.748 454.26 619.202 453.916C622.829 453.571 625.42 450.294 625.075 446.845C624.729 443.224 621.448 440.637 617.993 440.982C614.366 441.327 611.775 444.604 612.121 448.052Z" fill="#4D4D4D"/>
<path d="M528.697 453.053C528.697 460.641 534.742 466.676 542.342 466.676C549.942 466.676 555.987 460.641 555.987 453.053C555.987 445.466 549.942 439.43 542.342 439.43C534.915 439.43 528.697 445.466 528.697 453.053Z" fill="#333333"/>
<path d="M533.533 441.327C533.533 446.5 537.506 450.639 542.514 450.639C547.523 450.639 551.496 446.5 551.496 441.327C551.496 436.154 547.523 432.015 542.514 432.015C537.506 432.187 533.533 436.326 533.533 441.327Z" fill="#333333"/>
<path d="M530.769 453.053C530.769 457.364 534.224 460.986 538.715 460.986C543.033 460.986 546.66 457.537 546.66 453.053C546.66 448.742 543.205 445.121 538.715 445.121C534.397 445.293 530.769 448.742 530.769 453.053Z" fill="#4D4D4D"/>
<path d="M534.742 442.534C534.742 445.81 537.333 448.569 540.787 448.569C544.069 448.569 546.832 445.983 546.832 442.534C546.832 439.257 544.242 436.671 540.787 436.671C537.333 436.498 534.742 439.257 534.742 442.534Z" fill="#4D4D4D"/>
<path d="M558.923 464.434C558.923 474.091 566.868 482.023 576.54 482.023C586.213 482.023 594.158 474.091 594.158 464.434C594.158 454.777 586.213 446.845 576.54 446.845C566.868 446.845 558.923 454.605 558.923 464.434Z" fill="#333333"/>
<path d="M564.968 449.259C564.968 455.812 570.15 461.158 576.54 461.158C582.931 461.158 588.113 455.812 588.113 449.259C588.113 442.706 582.931 437.361 576.54 437.361C570.15 437.361 564.968 442.706 564.968 449.259Z" fill="#333333"/>
<path d="M566.523 450.811C566.523 455.122 569.977 458.399 574.295 458.399C578.613 458.399 582.068 454.95 582.068 450.811C582.068 446.5 578.613 443.051 574.295 443.051C569.977 443.051 566.523 446.5 566.523 450.811Z" fill="#4D4D4D"/>
<path d="M516.261 451.329C516.261 453.398 517.815 454.95 519.715 454.95C521.615 454.95 523.17 453.398 523.17 451.329C523.17 449.259 521.615 447.707 519.715 447.707C517.815 447.707 516.261 449.259 516.261 451.329Z" fill="#333333"/>
<path d="M441.991 447.018C441.991 453.743 447.346 459.089 454.082 459.089C460.818 459.089 466.172 453.743 466.172 447.018C466.172 440.293 460.818 434.947 454.082 434.947C447.346 434.947 441.991 440.293 441.991 447.018Z" fill="#333333"/>
<path d="M437.846 459.089C437.846 468.056 445.1 475.299 454.082 475.299C463.063 475.299 470.317 468.056 470.317 459.089C470.317 450.122 463.063 442.879 454.082 442.879C445.1 442.879 437.846 450.122 437.846 459.089Z" fill="#333333"/>
<path d="M446.136 436.671C446.136 441.155 449.764 444.948 454.082 444.948C458.4 444.948 462.027 441.327 462.027 436.671C462.027 432.188 458.4 428.394 454.082 428.394C449.764 428.394 446.136 432.188 446.136 436.671Z" fill="#333333"/>
<path d="M443.891 447.018C443.891 450.812 447 453.916 450.8 453.916C454.6 453.916 457.709 450.812 457.709 447.018C457.709 443.224 454.6 440.12 450.8 440.12C447 440.12 443.891 443.224 443.891 447.018Z" fill="#4D4D4D"/>
<path d="M447.173 437.706C447.173 440.638 449.591 443.052 452.527 443.052C455.463 443.052 457.881 440.638 457.881 437.706C457.881 434.775 455.463 432.36 452.527 432.36C449.591 432.36 447.173 434.775 447.173 437.706Z" fill="#4D4D4D"/>
<path d="M396.911 462.193C396.911 471.16 404.165 478.403 413.147 478.403C422.128 478.403 429.383 471.16 429.383 462.193C429.383 453.226 422.128 445.983 413.147 445.983C404.165 446.156 396.911 453.398 396.911 462.193Z" fill="#333333"/>
<path d="M402.611 448.397C402.611 454.433 407.447 459.434 413.147 459.434C419.02 459.434 423.856 454.605 423.856 448.397C423.856 442.362 419.02 437.533 413.147 437.533C407.275 437.533 402.611 442.362 402.611 448.397Z" fill="#333333"/>
<path d="M403.993 449.777C403.993 453.743 407.102 456.847 411.074 456.847C415.047 456.847 418.156 453.743 418.156 449.777C418.156 445.811 415.047 442.707 411.074 442.707C407.102 442.707 403.993 445.811 403.993 449.777Z" fill="#4D4D4D"/>
<path d="M132.649 468.746C132.649 483.576 144.567 495.475 159.421 495.475C174.275 495.475 186.193 483.576 186.193 468.746C186.193 453.916 174.275 442.017 159.421 442.017C144.567 442.017 132.649 454.088 132.649 468.746Z" fill="#333333"/>
<path d="M136.622 461.331C136.622 469.781 143.531 476.678 151.994 476.678C160.457 476.678 167.366 469.781 167.366 461.331C167.366 452.881 160.457 445.983 151.994 445.983C143.531 445.983 136.622 452.881 136.622 461.331Z" fill="#4D4D4D"/>
<path d="M98.2778 457.192C98.2778 469.608 108.468 479.782 120.904 479.782C133.34 479.782 143.531 469.608 143.531 457.192C143.531 444.776 133.34 434.602 120.904 434.602C108.296 434.602 98.2778 444.604 98.2778 457.192Z" fill="#333333"/>
<path d="M101.732 450.812C101.732 458.054 107.605 463.745 114.686 463.745C121.941 463.745 127.64 457.882 127.64 450.812C127.64 443.741 121.768 437.878 114.686 437.878C107.605 437.878 101.732 443.741 101.732 450.812Z" fill="#4D4D4D"/>
<path d="M155.966 460.813C155.966 473.229 166.157 483.404 178.593 483.404C191.029 483.404 201.219 473.229 201.219 460.813C201.219 448.397 191.029 438.223 178.593 438.223C165.984 438.223 155.966 448.225 155.966 460.813Z" fill="#333333"/>
<path d="M159.421 454.433C159.421 461.675 165.293 467.366 172.375 467.366C179.456 467.366 185.329 461.503 185.329 454.433C185.329 447.19 179.456 441.5 172.375 441.5C165.293 441.5 159.421 447.19 159.421 454.433Z" fill="#4D4D4D"/>
<path d="M225.745 465.987C225.745 478.403 235.936 488.577 248.372 488.577C260.808 488.577 270.998 478.403 270.998 465.987C270.998 453.571 260.808 443.397 248.372 443.397C235.763 443.397 225.745 453.571 225.745 465.987Z" fill="#333333"/>
<path d="M229.2 459.607C229.2 466.849 235.072 472.54 242.154 472.54C249.408 472.54 255.108 466.677 255.108 459.607C255.108 452.364 249.235 446.673 242.154 446.673C235.072 446.673 229.2 452.536 229.2 459.607Z" fill="#4D4D4D"/>
<path d="M253.035 462.193C253.035 474.609 263.226 484.783 275.662 484.783C288.098 484.783 298.288 474.609 298.288 462.193C298.288 449.777 288.098 439.603 275.662 439.603C263.226 439.603 253.035 449.605 253.035 462.193Z" fill="#333333"/>
<path d="M256.49 455.813C256.49 463.055 262.362 468.746 269.444 468.746C276.698 468.746 282.398 462.883 282.398 455.813C282.398 448.57 276.525 442.879 269.444 442.879C262.362 442.879 256.49 448.57 256.49 455.813Z" fill="#4D4D4D"/>
<path d="M235.418 458.571C235.418 465.814 241.29 471.505 248.372 471.505C255.626 471.505 261.326 465.641 261.326 458.571C261.326 451.329 255.453 445.638 248.372 445.638C241.118 445.638 235.418 451.501 235.418 458.571Z" fill="#4D4D4D"/>
<path d="M331.968 459.606C331.968 467.711 338.532 474.436 346.822 474.436C354.94 474.436 361.676 467.883 361.676 459.606C361.676 451.501 355.113 444.776 346.822 444.776C338.532 444.948 331.968 451.501 331.968 459.606Z" fill="#333333"/>
<path d="M334.214 455.467C334.214 460.123 338.014 463.917 342.677 463.917C347.34 463.917 351.14 460.123 351.14 455.467C351.14 450.811 347.34 447.017 342.677 447.017C338.014 447.017 334.214 450.811 334.214 455.467Z" fill="#4D4D4D"/>
<path d="M720.071 447.88C720.071 454.778 725.598 460.296 732.507 460.296C739.416 460.296 744.943 454.778 744.943 447.88C744.943 440.982 739.416 435.464 732.507 435.464C725.771 435.291 720.071 440.982 720.071 447.88Z" fill="#333333"/>
<path d="M715.926 460.296C715.926 469.608 723.353 477.023 732.68 477.023C742.006 477.023 749.433 469.608 749.433 460.296C749.433 450.984 742.006 443.569 732.68 443.569C723.353 443.569 715.926 450.984 715.926 460.296Z" fill="#333333"/>
<path d="M724.389 437.188C724.389 441.844 728.016 445.638 732.68 445.638C737.17 445.638 740.97 441.844 740.97 437.188C740.97 432.532 737.343 428.739 732.68 428.739C728.016 428.739 724.389 432.532 724.389 437.188Z" fill="#333333"/>
<path d="M721.971 447.88C721.971 451.846 725.253 455.122 729.225 455.122C733.198 455.122 736.479 451.846 736.479 447.88C736.479 443.913 733.198 440.637 729.225 440.637C725.253 440.637 721.971 443.913 721.971 447.88Z" fill="#4D4D4D"/>
<path d="M725.425 438.223C725.425 441.155 727.843 443.741 730.952 443.741C733.889 443.741 736.479 441.327 736.479 438.223C736.479 435.292 734.061 432.705 730.952 432.705C728.016 432.705 725.425 435.119 725.425 438.223Z" fill="#4D4D4D"/>
<path d="M661.173 452.709C661.173 458.227 665.664 462.711 671.191 462.711C676.718 462.711 681.209 458.227 681.209 452.709C681.209 447.191 676.718 442.707 671.191 442.707C665.664 442.707 661.173 447.191 661.173 452.709Z" fill="#333333"/>
<path d="M664.628 444.086C664.628 447.88 667.564 450.984 671.191 450.984C674.818 450.984 677.755 447.88 677.755 444.086C677.755 440.293 674.818 437.189 671.191 437.189C667.564 437.361 664.628 440.293 664.628 444.086Z" fill="#333333"/>
<path d="M662.728 452.709C662.728 455.985 665.319 458.572 668.6 458.572C671.882 458.572 674.473 455.985 674.473 452.709C674.473 449.605 671.882 447.018 668.6 447.018C665.319 446.845 662.728 449.432 662.728 452.709Z" fill="#4D4D4D"/>
<path d="M665.491 444.949C665.491 447.363 667.391 449.26 669.809 449.26C672.227 449.26 674.127 447.363 674.127 444.949C674.127 442.534 672.227 440.638 669.809 440.638C667.391 440.465 665.491 442.534 665.491 444.949Z" fill="#4D4D4D"/>
</svg>
